<svg width="52" height="41" viewBox="0 0 52 41" fill="none" xmlns="http://www.w3.org/2000/svg">
<path d="M37.9228 0H2.87305V38.1127H37.9228V0Z" fill="black"/>
<path d="M37.9226 0V38.1127H2.87293V0H0V38.1127V39.5563V41H40.7956V39.5563V38.1127V0H37.9226Z" fill="#00AEEF"/>
<path d="M18.0993 7.65143C21.6905 7.65143 24.7071 8.66199 26.8618 10.8275C29.1601 12.8486 30.1656 15.7359 30.1656 19.0564C30.1656 22.5211 29.0165 25.2641 26.8618 27.2852C24.5634 29.3064 21.6905 30.3169 18.0993 30.3169H10.4861V7.65143H18.0993ZM15.0828 26.9965H18.243C20.685 26.9965 22.4087 26.2747 23.8452 24.831C25.138 23.3873 25.8563 21.5106 25.8563 19.0564C25.8563 16.6021 25.138 14.7254 23.8452 13.2817C22.5524 11.838 20.685 11.1162 18.243 11.1162H15.0828V26.9965Z" fill="white"/>
<path d="M44.0994 0.577465V0H46.9723V0.577465H45.9668V4.18662H45.2485V0.577465H44.0994Z" fill="#808285"/>
<path d="M51.9999 0V4.18662H51.2817V1.2993L49.9889 4.18662H49.5579L48.2651 1.2993V4.18662H47.5469V0H48.2651L49.7016 3.17606L51.138 0H51.9999Z" fill="#808285"/>
</svg>
