<svg width="150" height="40" viewBox="0 0 150 40" fill="none" xmlns="http://www.w3.org/2000/svg">
<g clip-path="url(#clip0)">
<path d="M6.5842 2.3952C9.69673 2.3952 12.2107 3.23353 14.1261 5.02993C16.0415 6.82634 16.9992 9.10179 16.9992 12.0958C16.9992 14.9701 16.0415 17.3653 14.1261 19.1617C12.2107 20.9581 9.69673 21.7964 6.5842 21.7964H0V2.3952H6.5842ZM3.95052 18.8024H6.5842C8.61931 18.8024 10.1756 18.2036 11.3727 17.006C12.4501 15.8084 13.0487 14.1317 13.0487 12.0958C13.0487 10.0599 12.4501 8.38323 11.3727 7.18562C10.2953 5.98802 8.61931 5.38921 6.5842 5.38921H3.95052V18.8024Z" fill="black"/>
<path d="M26.4565 22.0359C24.182 22.0359 22.3863 21.3174 20.9497 19.8802C19.5132 18.4431 18.7949 16.5269 18.7949 14.1317C18.7949 11.7365 19.5132 9.82035 20.9497 8.38323C22.3863 6.9461 24.182 6.22754 26.4565 6.22754C28.7311 6.22754 30.5268 6.9461 31.9633 8.26347C33.3999 9.70059 34.1181 11.497 34.1181 13.8922C34.1181 14.3713 34.1181 14.9701 33.9984 15.3293H22.8652C22.9849 16.2874 23.344 17.1257 23.9426 17.7245C24.5411 18.3233 25.3791 18.6826 26.4565 18.6826C27.7734 18.6826 28.8508 18.0838 29.4493 17.006H33.6393C33.1604 18.4431 32.3225 19.6407 31.0056 20.5988C29.8085 21.5569 28.2522 22.0359 26.4565 22.0359ZM29.0902 10.4192C28.3719 9.82035 27.5339 9.46107 26.5762 9.46107C25.6185 9.46107 24.7806 9.82035 24.182 10.4192C23.5834 11.018 23.1046 11.8563 22.9849 12.8144H30.2873C30.1676 11.8563 29.6888 11.018 29.0902 10.4192Z" fill="black"/>
<path d="M38.308 19.8802C36.8715 18.4431 36.1532 16.5269 36.1532 14.1317C36.1532 11.7365 36.8715 9.82035 38.308 8.38323C39.7446 6.9461 41.5403 6.22754 43.8148 6.22754C45.7302 6.22754 47.2865 6.70658 48.4836 7.5449C49.6807 8.50299 50.5187 9.70059 50.9976 11.3772H46.8076C46.3288 10.0599 45.3711 9.46107 43.8148 9.46107C42.7374 9.46107 41.7797 9.82035 41.1811 10.6587C40.5826 11.497 40.2234 12.5748 40.2234 14.012C40.2234 15.4491 40.5826 16.5269 41.1811 17.3653C41.7797 18.2036 42.7374 18.5629 43.8148 18.5629C45.2514 18.5629 46.3288 17.9641 46.8076 16.6467H50.9976C50.5187 18.2036 49.6807 19.521 48.4836 20.479C47.1668 21.4371 45.7302 21.9162 43.8148 21.9162C41.5403 22.0359 39.7446 21.3174 38.308 19.8802Z" fill="black"/>
<path d="M55.0679 19.7605C53.6313 18.3234 52.7933 16.4072 52.7933 14.012C52.7933 11.6168 53.5116 9.7006 55.0679 8.26348C56.6241 6.82635 58.4198 6.10779 60.6944 6.10779C62.9689 6.10779 64.7646 6.82635 66.3209 8.26348C67.8771 9.7006 68.5954 11.6168 68.5954 14.012C68.5954 16.4072 67.8771 18.3234 66.3209 19.7605C64.7646 21.1976 62.9689 21.9162 60.6944 21.9162C58.4198 22.0359 56.6241 21.1976 55.0679 19.7605ZM60.6944 18.6826C61.7718 18.6826 62.7295 18.3234 63.4478 17.485C64.2858 16.6467 64.6449 15.5689 64.6449 14.1317C64.6449 12.6946 64.2858 11.497 63.4478 10.7784C62.7295 9.94012 61.7718 9.58084 60.6944 9.58084C59.617 9.58084 58.6593 9.94012 57.941 10.7784C57.2227 11.6168 56.8636 12.6946 56.8636 14.1317C56.8636 15.5689 57.2227 16.7665 57.941 17.485C58.6593 18.3234 59.617 18.6826 60.6944 18.6826Z" fill="black"/>
<path d="M72.7854 19.7605C71.4685 18.3234 70.7502 16.4072 70.7502 14.012C70.7502 11.6168 71.4685 9.82036 72.7854 8.38323C74.1022 6.94611 75.8979 6.22754 77.933 6.22754C80.0878 6.22754 81.6441 7.06587 82.7215 8.86228V0H86.5523V21.7964H82.7215V19.1617C81.5244 21.0778 79.9681 21.9162 77.933 21.9162C75.7782 22.0359 74.1022 21.1976 72.7854 19.7605ZM81.5244 17.3653C82.3624 16.5269 82.7215 15.4491 82.7215 14.012C82.7215 12.5749 82.3624 11.497 81.5244 10.6587C80.6864 9.82036 79.7287 9.46108 78.6513 9.46108C77.5739 9.46108 76.6162 9.94012 75.8979 10.7784C75.0599 11.6168 74.7008 12.6946 74.7008 14.1317C74.7008 15.5689 75.0599 16.6467 75.8979 17.485C76.7359 18.3234 77.6936 18.6826 78.771 18.6826C79.7287 18.5629 80.6864 18.2036 81.5244 17.3653Z" fill="black"/>
<path d="M97.2067 22.0359C94.9321 22.0359 93.1364 21.3174 91.6999 19.8802C90.2633 18.4431 89.545 16.5269 89.545 14.1317C89.545 11.7365 90.2633 9.82035 91.6999 8.38323C93.1364 6.9461 94.9321 6.22754 97.2067 6.22754C99.4812 6.22754 101.277 6.9461 102.713 8.26347C104.15 9.70059 104.868 11.497 104.868 13.8922C104.868 14.3713 104.868 14.9701 104.749 15.3293H93.6153C93.735 16.2874 94.0941 17.1257 94.6927 17.7245C95.2913 18.3233 96.1292 18.6826 97.2067 18.6826C98.5235 18.6826 99.6009 18.0838 100.199 17.006H104.389C103.911 18.4431 103.073 19.6407 101.756 20.5988C100.559 21.5569 99.1221 22.0359 97.2067 22.0359ZM99.8403 10.4192C99.1221 9.82035 98.2841 9.46107 97.3264 9.46107C96.3687 9.46107 95.5307 9.82035 94.9321 10.4192C94.3336 11.018 93.8547 11.8563 93.735 12.8144H101.037C100.918 11.8563 100.559 11.018 99.8403 10.4192Z" fill="black"/>
<path d="M107.981 14.3713V2.3952H111.931V14.3713C111.931 15.6886 112.29 16.7665 112.889 17.3653C113.607 18.0838 114.565 18.4431 115.762 18.4431C116.959 18.4431 118.037 18.0838 118.635 17.3653C119.354 16.6467 119.713 15.6886 119.713 14.3713V2.3952H123.543V14.3713C123.543 16.7665 122.825 18.6826 121.269 20C119.713 21.3174 117.917 22.0359 115.642 22.0359C113.488 22.0359 111.572 21.4371 110.136 20.1198C108.699 18.6826 107.981 16.7665 107.981 14.3713Z" fill="#00AEEF"/>
<path d="M130.726 8.74252C131.804 7.06587 133.36 6.10779 135.515 6.10779C137.67 6.10779 139.346 6.82635 140.662 8.26348C141.979 9.7006 142.697 11.6168 142.697 13.8922C142.697 16.1677 141.979 18.0838 140.662 19.6407C139.346 21.0778 137.55 21.9162 135.515 21.9162C133.48 21.9162 131.804 20.9581 130.726 19.1617V28.1437H126.895V6.46707H130.846V8.74252H130.726ZM137.67 17.3653C138.508 16.5269 138.867 15.4491 138.867 14.012C138.867 12.5749 138.508 11.497 137.67 10.6587C136.832 9.82036 135.874 9.46108 134.796 9.46108C133.719 9.46108 132.761 9.82036 131.923 10.6587C131.085 11.497 130.726 12.5749 130.726 14.012C130.726 15.4491 131.085 16.5269 131.923 17.3653C132.761 18.2036 133.719 18.5629 134.796 18.5629C135.874 18.5629 136.832 18.2036 137.67 17.3653Z" fill="#00AEEF"/>
<path d="M142.817 2.87424V2.3952H145.451V2.87424H144.493V6.10778H143.895V2.87424H142.817Z" fill="#808285"/>
<path d="M150 2.3952V6.10778H149.402V3.59281L148.204 6.10778H147.726L146.528 3.59281V6.10778H146.05V2.3952H146.768L148.085 5.38921L149.402 2.3952H150Z" fill="#808285"/>
<path d="M32.5619 34.97V34.012H36.9913V34.97H35.435V40H34.2379V34.97H32.5619Z" fill="black"/>
<path d="M42.6178 34.012V34.97H40.3432V36.5269H42.3784V37.485H40.3432V39.1617H42.6178V40.1198H39.1461V34.1317H42.6178V34.012Z" fill="black"/>
<path d="M45.4908 39.1617C44.8923 38.5629 44.6528 37.8443 44.6528 37.006C44.6528 36.1677 44.8923 35.4491 45.4908 34.8503C46.0894 34.2515 46.8077 34.012 47.6456 34.012C48.2442 34.012 48.8428 34.1317 49.3216 34.491C49.8005 34.8503 50.1596 35.3293 50.399 35.9281H49.0822C48.8428 35.4491 48.3639 35.0898 47.7654 35.0898C47.1668 35.0898 46.8077 35.2096 46.4485 35.5689C46.0894 35.9281 45.9697 36.4072 45.9697 37.006C45.9697 37.6048 46.0894 38.0838 46.4485 38.4431C46.8077 38.8024 47.2865 38.9221 47.7654 38.9221C48.3639 38.9221 48.8428 38.6826 49.0822 38.0838H50.5188C50.2793 38.6826 49.9202 39.1617 49.4413 39.5209C48.9625 39.8802 48.3639 40 47.7654 40C46.8077 40 46.0894 39.7605 45.4908 39.1617Z" fill="black"/>
<path d="M56.5044 34.012H57.7016V40H56.5044V37.485H53.9905V40H52.7933V34.012H53.9905V36.5269H56.5044V34.012Z" fill="black"/>
<path d="M64.1661 34.012H65.3632V40H64.1661L61.4127 35.8084V40H60.2156V34.012H61.4127L64.1661 38.2036V34.012Z" fill="black"/>
<path d="M70.5108 40C69.6728 40 68.9545 39.7605 68.3559 39.1617C67.7574 38.5629 67.5179 37.8443 67.5179 37.006C67.5179 36.1677 67.7574 35.4491 68.3559 34.8503C68.9545 34.2515 69.6728 34.012 70.5108 34.012C71.3488 34.012 72.067 34.2515 72.6656 34.8503C73.2642 35.4491 73.5036 36.1677 73.5036 37.006C73.5036 37.8443 73.2642 38.5629 72.6656 39.1617C72.067 39.7605 71.3488 40 70.5108 40ZM71.8276 38.3233C72.1867 37.9641 72.3065 37.485 72.3065 36.8862C72.3065 36.2874 72.1867 35.8084 71.8276 35.4491C71.4685 35.0898 71.1093 34.97 70.5108 34.97C69.9122 34.97 69.5531 35.0898 69.1939 35.4491C68.8348 35.8084 68.7151 36.2874 68.7151 36.8862C68.7151 37.485 68.8348 37.9641 69.1939 38.3233C69.5531 38.6826 70.0319 38.8024 70.5108 38.8024C70.9896 38.9221 71.4685 38.6826 71.8276 38.3233Z" fill="black"/>
<path d="M75.6584 34.012H76.8556V39.0419H78.771V40H75.6584V34.012Z" fill="black"/>
<path d="M83.5595 40C82.7215 40 82.0032 39.7605 81.4046 39.1617C80.8061 38.5629 80.5667 37.8443 80.5667 37.006C80.5667 36.1677 80.8061 35.4491 81.4046 34.8503C82.0032 34.2515 82.7215 34.012 83.5595 34.012C84.3975 34.012 85.1157 34.2515 85.7143 34.8503C86.3129 35.4491 86.5523 36.1677 86.5523 37.006C86.5523 37.8443 86.3129 38.5629 85.7143 39.1617C85.1157 39.7605 84.3975 40 83.5595 40ZM84.8763 38.3233C85.2354 37.9641 85.3552 37.485 85.3552 36.8862C85.3552 36.2874 85.2354 35.8084 84.8763 35.4491C84.5172 35.0898 84.158 34.97 83.5595 34.97C82.9609 34.97 82.6018 35.0898 82.2426 35.4491C81.8835 35.8084 81.7638 36.2874 81.7638 36.8862C81.7638 37.485 81.8835 37.9641 82.2426 38.3233C82.6018 38.6826 83.0806 38.8024 83.5595 38.8024C84.0383 38.9221 84.5172 38.6826 84.8763 38.3233Z" fill="black"/>
<path d="M89.3058 39.1617C88.7072 38.5629 88.4678 37.8443 88.4678 37.006C88.4678 36.1677 88.7072 35.4491 89.3058 34.8503C89.9043 34.2515 90.6226 34.012 91.4606 34.012C92.0592 34.012 92.6577 34.1317 93.1366 34.491C93.6154 34.8503 93.9746 35.3293 94.214 35.9281H92.7774C92.538 35.4491 92.0592 35.0898 91.4606 35.0898C90.862 35.0898 90.5029 35.2096 90.1438 35.5689C89.7846 35.9281 89.6649 36.4072 89.6649 37.006C89.6649 37.6048 89.7846 38.0838 90.1438 38.4431C90.5029 38.8024 90.862 38.9221 91.3409 38.9221C91.8197 38.9221 92.1789 38.8024 92.538 38.5629C92.7774 38.3233 93.0169 37.9641 93.0169 37.6048H90.9817V36.6467H94.214V37.6048C94.0943 38.2036 93.7351 38.8024 93.2563 39.2814C92.7774 39.7605 92.0592 40 91.2212 40C90.6226 40 89.9043 39.7605 89.3058 39.1617Z" fill="black"/>
<path d="M96.4885 40V34.012H97.6856V40H96.4885Z" fill="black"/>
<path d="M103.671 34.012V34.97H101.397V36.5269H103.432V37.485H101.397V39.1617H103.671V40.1198H100.2V34.1317H103.671V34.012Z" fill="black"/>
<path d="M107.981 34.8503C107.741 34.8503 107.502 34.9701 107.382 35.0898C107.263 35.2096 107.143 35.3293 107.143 35.5689C107.143 35.8084 107.143 35.9281 107.263 36.0479C107.382 36.1677 107.502 36.2874 107.741 36.2874C107.981 36.4072 108.101 36.4072 108.34 36.4072C108.579 36.4072 108.819 36.5269 108.939 36.6467C109.178 36.7665 109.298 36.7665 109.537 36.8862C109.777 37.006 109.896 37.1257 110.016 37.3653C110.136 37.6048 110.136 37.8443 110.136 38.0838C110.136 38.5629 109.896 39.0419 109.537 39.4012C109.178 39.7605 108.579 39.8802 107.981 39.8802C107.382 39.8802 106.784 39.7605 106.425 39.4012C106.065 39.0419 105.826 38.6826 105.826 38.0838H107.143C107.143 38.5629 107.502 38.9222 107.981 38.9222C108.22 38.9222 108.46 38.8024 108.579 38.6826C108.939 38.6826 108.939 38.5629 108.939 38.3233C108.939 38.0838 108.819 37.8443 108.579 37.7245C108.34 37.6048 108.101 37.485 107.861 37.3653C107.622 37.2455 107.263 37.2455 106.903 37.1257C106.544 37.006 106.305 36.8862 106.185 36.6467C105.946 36.4072 105.826 36.0479 105.826 35.6886C105.826 35.0898 106.065 34.7305 106.425 34.3713C106.784 34.012 107.382 33.8922 107.981 33.8922C108.579 33.8922 109.058 34.012 109.417 34.3713C109.777 34.6108 110.016 35.0898 110.016 35.6886H108.699C108.699 35.4491 108.579 35.3293 108.46 35.0898C108.46 34.9701 108.22 34.8503 107.981 34.8503Z" fill="black"/>
</g>
<defs>
<clipPath id="clip0">
<rect width="150" height="40" fill="white"/>
</clipPath>
</defs>
</svg>
